<?xml version="1.0" standalone="no"?>
<!DOCTYPE svg PUBLIC "-//W3C//DTD SVG 20010904//EN"
 "http://www.w3.org/TR/2001/REC-SVG-20010904/DTD/svg10.dtd">
<svg version="1.0" xmlns="http://www.w3.org/2000/svg"
 width="700.000000pt" height="700.000000pt" viewBox="0 0 700.000000 700.000000"
 preserveAspectRatio="xMidYMid meet">
<metadata>
Created by potrace 1.11, written by Peter Selinger 2001-2013
</metadata>
<g transform="translate(0.000000,700.000000) scale(0.100000,-0.100000)"
fill="#000000" stroke="none">
<path d="M1175 6980 c-121 -21 -168 -33 -260 -67 -291 -108 -531 -303 -699
-567 -42 -66 -118 -216 -109 -216 3 0 1 -6 -4 -12 -16 -21 -65 -187 -78 -263
-2 -11 -7 -38 -11 -60 -14 -84 -11 -328 6 -425 57 -320 179 -554 409 -780 186
-182 432 -317 671 -365 153 -31 183 -33 621 -34 l365 -1 0 -685 0 -685 -366
-1 c-382 0 -452 -2 -522 -15 -24 -4 -50 -8 -58 -9 -71 -9 -245 -68 -346 -117
-478 -233 -782 -716 -789 -1253 -1 -82 2 -168 6 -190 4 -22 10 -61 13 -87 4
-25 13 -65 21 -87 8 -23 12 -41 10 -41 -7 0 48 -146 81 -215 195 -416 581
-707 1044 -787 120 -20 332 -18 485 6 102 16 273 78 393 141 414 220 689 629
738 1100 4 39 8 237 10 440 1 204 2 373 3 378 0 4 307 7 681 7 l680 0 0 -122
c3 -725 4 -737 50 -918 111 -433 443 -804 860 -959 83 -31 207 -63 290 -76 85
-13 319 -12 408 2 470 74 840 337 1067 758 102 187 150 392 149 630 0 113 -4
161 -19 260 -7 45 -38 154 -62 220 -194 523 -664 882 -1218 930 -16 2 -202 3
-411 4 l-381 1 0 685 0 685 361 1 c405 1 440 2 511 14 28 5 53 8 56 7 15 -3
200 51 271 79 275 108 532 325 680 574 34 58 91 165 93 175 0 3 11 32 24 65
28 74 56 178 72 270 14 80 19 355 8 400 -4 17 -10 48 -12 70 -25 213 -161 497
-325 676 -241 266 -522 416 -867 464 -91 13 -317 13 -390 1 -173 -30 -308 -75
-454 -152 -347 -183 -602 -506 -700 -884 -39 -150 -44 -225 -46 -630 l-1 -395
-682 -2 c-513 -1 -682 2 -683 10 -1 7 -2 192 -3 412 -2 220 -6 414 -9 430 -4
17 -9 45 -12 63 -3 18 -12 61 -21 95 -8 34 -17 71 -19 82 -3 11 -9 29 -14 40
-5 11 -21 50 -35 86 -37 90 -104 206 -173 298 -220 293 -555 490 -928 547
-100 15 -326 12 -430 -6z m435 -730 c234 -78 401 -254 466 -491 15 -55 18
-118 20 -439 2 -206 1 -383 -2 -393 -6 -17 -26 -18 -412 -15 -449 5 -446 4
-582 73 -82 42 -101 56 -175 132 -227 231 -257 590 -74 864 88 130 240 237
399 278 101 27 266 23 360 -9z m4175 -9 c113 -32 200 -85 295 -181 96 -96 146
-183 179 -310 28 -107 23 -277 -12 -375 -83 -236 -267 -402 -507 -459 -53 -12
-135 -15 -445 -13 l-380 2 -1 359 c0 197 3 387 8 422 29 247 212 463 463 549
111 38 280 41 400 6z m-1600 -2746 l0 -680 -685 0 -685 0 0 683 0 682 685 -2
684 -3 1 -680z m-2116 -1400 c6 -6 9 -97 14 -495 5 -326 -8 -397 -97 -545 -65
-107 -178 -207 -296 -262 -117 -55 -305 -75 -431 -46 -318 73 -537 346 -537
670 0 188 75 362 210 490 137 129 284 187 488 192 63 1 116 3 117 4 4 5 527
-3 532 -8z m3651 -19 c258 -55 444 -225 522 -476 30 -98 32 -282 4 -375 -72
-239 -241 -408 -482 -481 -91 -28 -277 -26 -368 4 -230 77 -385 230 -461 457
-25 76 -28 111 -30 498 l-3 387 377 0 c283 0 392 -4 441 -14z"/>
</g>
</svg>
