<?xml version="1.0" encoding="utf-8"?>
<!-- Generator: Adobe Illustrator 22.1.0, SVG Export Plug-In . SVG Version: 6.00 Build 0)  -->
<svg version="1.1" id="Layer_1" xmlns="http://www.w3.org/2000/svg" xmlns:xlink="http://www.w3.org/1999/xlink" x="0px" y="0px"
	 viewBox="0 0 177.3 61.3" style="enable-background:new 0 0 177.3 61.3;" xml:space="preserve">
<style type="text/css">
	.st0{fill:#0F4A7F;}
</style>
<g>
	<path class="st0" d="M155.2,3.7c14.6,0,22.1,11.2,22.1,24.4c0,1.3-0.2,3.7-0.2,3.7h-40.6c0.3,13.6,9.6,20.9,20.5,20.9
		c9.7,0,16.1-6.4,16.1-6.4l3.3,5.5c0,0-7.7,7.4-19.6,7.4c-15.8,0-27.7-11.4-27.7-27.7C129.1,14.1,140.9,3.7,155.2,3.7z M170,25.9
		c-0.4-11-7.1-16.2-15-16.2c-8.8,0-16.5,5.6-18.2,16.2H170z"/>
</g>
<g>
	<path class="st0" d="M78.7,29h13.4V14.2h3.5V29H109v3.4H95.6v14.8h-3.5V32.3H78.7V29z"/>
</g>
</svg>
