<?xml version="1.0" encoding="utf-8"?>
<!-- Generator: Adobe Illustrator 22.1.0, SVG Export Plug-In . SVG Version: 6.00 Build 0)  -->
<svg version="1.1" id="Layer_1" xmlns="http://www.w3.org/2000/svg" xmlns:xlink="http://www.w3.org/1999/xlink" x="0px" y="0px"
	 viewBox="0 0 177.3 61.3" style="enable-background:new 0 0 177.3 61.3;" xml:space="preserve">
<style type="text/css">
	.st0{fill:#AACF37;}
	.st1{fill:#414042;}
</style>
<g>
	<g>
		<path class="st0" d="M49,36.7h-6v-12h6c6.8,0,12.3-5.5,12.3-12.3C61.4,5.5,55.8,0,49,0S36.7,5.5,36.7,12.3v5.9h-12v-6
			C24.7,5.5,19.2,0,12.3,0S0,5.5,0,12.3s5.5,12.3,12.3,12.3h2.4h3.6v12h-6C5.5,36.7,0,42.2,0,49s5.5,12.3,12.3,12.3
			S24.6,55.8,24.6,49v-6h12v6c0,6.8,5.5,12.3,12.3,12.3S61.4,55.8,61.4,49S55.8,36.7,49,36.7z M55,49c0,3.3-2.7,6-6,6
			c-3.2,0-5.9-2.6-6-5.9v-2.2V43h6C52.4,43.1,55,45.7,55,49z M43.1,18.3v-6c0-3.3,2.7-5.9,6-5.9s6,2.7,6,6c0,3.2-2.6,5.9-5.9,6h-2.1
			h-3.8L43.1,18.3z M36.7,24.7v12h-12v-12H36.7z M18.3,18.3h-6c-3.3,0-5.9-2.7-5.9-6s2.7-6,6-6c3.2,0,5.9,2.6,6,5.9v2.1v3.8
			L18.3,18.3z M18.3,49.1c0,3.3-2.7,5.9-6,5.9s-6-2.7-6-6c0-3.2,2.6-5.9,5.9-6h2.1h3.8h0.1L18.3,49.1z"/>
	</g>
	<g>
		<path class="st1" d="M155.2,3.7c14.6,0,22.1,11.2,22.1,24.4c0,1.3-0.2,3.7-0.2,3.7h-40.6c0.3,13.6,9.6,20.9,20.5,20.9
			c9.7,0,16.1-6.4,16.1-6.4l3.3,5.5c0,0-7.7,7.4-19.6,7.4c-15.8,0-27.7-11.4-27.7-27.7C129.1,14.1,140.9,3.7,155.2,3.7z M170,25.9
			c-0.4-11-7.1-16.2-15-16.2c-8.8,0-16.5,5.6-18.2,16.2H170z"/>
	</g>
	<g>
		<path class="st1" d="M78.7,29h13.4V14.2h3.5V29H109v3.4H95.6v14.8h-3.5V32.3H78.7V29z"/>
	</g>
</g>
</svg>
