<?xml version="1.0" encoding="utf-8"?>
<!-- Generator: Adobe Illustrator 22.1.0, SVG Export Plug-In . SVG Version: 6.00 Build 0)  -->
<svg version="1.1" id="Layer_1" xmlns="http://www.w3.org/2000/svg" xmlns:xlink="http://www.w3.org/1999/xlink" x="0px" y="0px"
	 viewBox="0 0 317 82.9" style="enable-background:new 0 0 317 82.9;" xml:space="preserve">
<style type="text/css">
	.st0{fill:#AACF37;}
	.st1{fill:#404041;}
	.st2{fill:#808184;}
</style>
<g>
	<path class="st0" d="M38.5,41.9l-4.6,0v-9.3l4.6,0c5.3,0,9.6-4.3,9.6-9.6c0-5.3-4.3-9.6-9.6-9.6c-5.3,0-9.6,4.3-9.6,9.6l0,4.6h-9.3
		l0-4.6c0-5.3-4.3-9.6-9.6-9.6s-9.6,4.3-9.6,9.6c0,5.3,4.3,9.6,9.6,9.6l1.8,0l2.8,0v9.3l-4.6,0c-5.3,0-9.6,4.3-9.6,9.6
		s4.3,9.6,9.6,9.6c5.3,0,9.6-4.3,9.6-9.6l0-4.6h9.3l0,4.6c0,5.3,4.3,9.6,9.6,9.6s9.6-4.3,9.6-9.6C48,46.2,43.7,41.9,38.5,41.9z
		 M43.1,51.5c0,2.5-2.1,4.6-4.6,4.6c-2.5,0-4.6-2-4.6-4.5l0-1.7l0-3h4.7C41,46.9,43.1,49,43.1,51.5z M33.8,27.7V23
		c0-2.5,2.1-4.6,4.6-4.6c2.5,0,4.6,2.1,4.6,4.6c0,2.5-2,4.6-4.5,4.6l-1.7,0l-2.9,0L33.8,27.7z M28.9,32.7v9.3h-9.3v-9.3H28.9z
		 M14.6,27.7H10c-2.5,0-4.6-2.1-4.6-4.6c0-2.5,2.1-4.6,4.6-4.6c2.5,0,4.6,2,4.6,4.5l0,1.7v2.9L14.6,27.7z M14.6,51.5
		c0,2.5-2.1,4.6-4.6,4.6c-2.5,0-4.6-2.1-4.6-4.6c0-2.5,2-4.6,4.5-4.6l1.7,0h2.9l0.1,0L14.6,51.5z"/>
</g>
<g>
	<path class="st1" d="M77.5,12.7c12.8,0,19.3,9.9,19.3,21.4c0,1.1-0.2,3.2-0.2,3.2H61.1c0.3,11.9,8.4,18.3,18,18.3
		c8.5,0,14.1-5.6,14.1-5.6l2.9,4.8c0,0-6.7,6.4-17.1,6.4c-13.8,0-24.2-10-24.2-24.2C54.6,21.8,64.9,12.7,77.5,12.7z M90.4,32.1
		c-0.4-9.7-6.3-14.2-13.2-14.2c-7.7,0-14.5,4.9-15.9,14.2H90.4z"/>
	<path class="st1" d="M123.4,40.1c0,0-0.7,1.4-1.6,2.6l-11.2,17.4h-7.4L119.6,36l-14.9-22.2h7.4l10,15.6c0.7,1.2,1.6,2.7,1.6,2.7
		h0.1c0,0,0.8-1.5,1.6-2.7l10-15.6h7.4L127.6,36l16.3,24.1h-7.4l-11.2-17.4c-0.8-1.2-1.6-2.6-1.6-2.6H123.4L123.4,40.1z"/>
	<path class="st1" d="M152.2,13.8h6v4.5c0,2-0.2,3.6-0.2,3.6h0.2c0,0,3.8-9.2,16-9.2c12.4,0,20.2,10,20.2,24.3
		c0,14.6-8.8,24.2-20.7,24.2c-11.1,0-15.2-8.8-15.2-8.8h-0.2c0,0,0.2,1.7,0.2,4.1v22.1h-6.3V13.8z M173,55.7
		c8.2,0,14.9-6.9,14.9-18.7c0-11.3-6-18.6-14.6-18.6c-7.7,0-15,5.5-15,18.7C158.3,46.4,163.4,55.7,173,55.7z"/>
	<path class="st1" d="M226.8,12.7c13.5,0,24.5,10.3,24.5,24c0,14-11,24.5-24.5,24.5s-24.5-10.5-24.5-24.5
		C202.3,23,213.2,12.7,226.8,12.7z M226.8,55.6c10,0,18.1-8.1,18.1-18.9c0-10.5-8.1-18.3-18.1-18.3s-18.1,7.8-18.1,18.3
		C208.7,47.5,216.8,55.6,226.8,55.6z"/>
	<path class="st1" d="M261.4,13.8h6.2V22c0,2-0.2,3.7-0.2,3.7h0.2c2.2-7,7.4-12.3,14.6-12.3c1.3,0,2.5,0.3,2.5,0.3v6.2
		c0,0-1.1-0.2-2.3-0.2c-6.5,0-11.4,5.2-13.5,12c-0.9,2.9-1.3,6.1-1.3,9v19.5h-6.3V13.8z"/>
	<path class="st1" d="M297.4,19.6h-6.1v-5.3h6.2V1h6.2v13.4h11.6v5.3h-11.6v23c0,10.9,6.9,12.3,10.4,12.3c1.3,0,2.1-0.2,2.1-0.2v5.6
		c0,0-1,0.2-2.7,0.2c-5.3,0-16.1-1.8-16.1-17.2V19.6z"/>
</g>
<g>
	<path class="st2" d="M1.4,73.8h2.8c1.5,0,2.5,0.7,2.5,2c0,0.6-0.3,1.3-0.9,1.6v0c0.9,0.3,1.2,1,1.2,1.7c0,1.6-1.4,2.2-2.8,2.2H1.4
		V73.8z M4.2,76.7c0.5,0,0.7-0.3,0.7-0.7c0-0.3-0.2-0.6-0.7-0.6H3.2v1.3H4.2z M4.3,79.7c0.5,0,0.8-0.4,0.8-0.8
		c0-0.4-0.3-0.8-0.8-0.8H3.2v1.5H4.3z"/>
	<path class="st2" d="M8.3,73.8h4.6v1.6h-2.8V77h2.3v1.6h-2.3v2.8H8.3V73.8z"/>
	<path class="st2" d="M17.6,79.7h-2.3l-0.5,1.6h-1.9l2.5-7.5h1.9l2.5,7.5H18L17.6,79.7z M16.4,75.5c0,0-0.2,0.8-0.3,1.3l-0.4,1.5
		h1.5l-0.4-1.5C16.6,76.3,16.4,75.5,16.4,75.5L16.4,75.5z"/>
	<path class="st2" d="M22.8,80.5c0-2.8,3.2-3.3,3.2-4.3c0-0.5-0.4-0.7-0.8-0.7c-0.7,0-1.1,0.8-1.1,0.8l-1.4-0.9c0,0,0.7-1.6,2.6-1.6
		c1.2,0,2.6,0.7,2.6,2.3c0,2.3-3,2.8-3.1,3.7H28v1.6h-5.2C22.8,81,22.8,80.7,22.8,80.5z"/>
	<path class="st2" d="M29.1,77.5c0-2.1,0.7-3.9,2.8-3.9s2.8,1.7,2.8,3.9s-0.7,3.9-2.8,3.9S29.1,79.7,29.1,77.5z M32.9,77.5
		c0-1.2-0.2-2.2-0.9-2.2c-0.7,0-0.9,1-0.9,2.2c0,1.2,0.2,2.2,0.9,2.2C32.6,79.8,32.9,78.8,32.9,77.5z"/>
	<path class="st2" d="M35.9,79.7h1.6v-3.1c0-0.3,0-0.6,0-0.6h0c0,0-0.1,0.2-0.3,0.4l-0.5,0.4l-1.1-1.1l2-1.9h1.6v5.9h1.6v1.6h-5
		V79.7z"/>
	<path class="st2" d="M41.9,81.1l0.5-1.6c0,0,0.5,0.2,1,0.2c0.9,0,1.4-0.5,1.6-1.2h0c-0.2,0.1-0.7,0.3-1,0.3c-1.6,0-2.4-1.3-2.4-2.6
		c0-1.3,0.9-2.5,2.6-2.5c1.5,0,3,1.1,3,3.6c0,2-1.2,4.2-3.6,4.2C42.5,81.4,41.9,81.1,41.9,81.1z M45.2,76.9c0-0.9-0.6-1.5-1.2-1.5
		c-0.5,0-0.8,0.4-0.8,0.8c0,0.5,0.3,1.1,1.1,1.1C44.8,77.3,45.2,77.2,45.2,76.9z"/>
</g>
</svg>
