<?xml version="1.0" encoding="utf-8"?>
<!-- Generator: Adobe Illustrator 22.1.0, SVG Export Plug-In . SVG Version: 6.00 Build 0)  -->
<svg version="1.1" id="Layer_1" xmlns="http://www.w3.org/2000/svg" xmlns:xlink="http://www.w3.org/1999/xlink" x="0px" y="0px"
	 viewBox="0 0 61.4 61.3" style="enable-background:new 0 0 61.4 61.3;" xml:space="preserve">
<style type="text/css">
	.st0{fill:#AACF37;}
</style>
<g>
	<path class="st0" d="M49,36.6l-6,0v-12l6,0c6.8,0,12.3-5.5,12.3-12.3C61.4,5.5,55.8,0,49,0c-6.8,0-12.3,5.5-12.3,12.3l0,5.9h-12
		l0-6C24.7,5.5,19.2,0,12.3,0S0,5.5,0,12.3c0,6.8,5.5,12.3,12.3,12.3l2.4,0l3.6,0v12l-6,0C5.5,36.6,0,42.2,0,49s5.5,12.3,12.3,12.3
		c6.8,0,12.3-5.5,12.3-12.3l0-6h12l0,6c0,6.8,5.5,12.3,12.3,12.3S61.4,55.8,61.4,49C61.4,42.2,55.8,36.6,49,36.6z M55,49
		c0,3.3-2.7,6-6,6c-3.2,0-5.9-2.6-6-5.9l0-2.2l0-3.9h6C52.4,43,55,45.7,55,49z M43.1,18.3v-6c0-3.3,2.7-5.9,6-5.9c3.3,0,6,2.7,6,6
		c0,3.2-2.6,5.9-5.9,6l-2.1,0l-3.8,0L43.1,18.3z M36.7,24.7v12h-12v-12H36.7z M18.3,18.3h-6c-3.3,0-5.9-2.7-5.9-6c0-3.3,2.7-6,6-6
		c3.2,0,5.9,2.6,6,5.9l0,2.1v3.8L18.3,18.3z M18.3,49c0,3.3-2.7,5.9-6,5.9c-3.3,0-6-2.7-6-6c0-3.2,2.6-5.9,5.9-6l2.1,0h3.8l0.1,0
		L18.3,49z"/>
</g>
</svg>
