<?xml version="1.0" encoding="utf-8"?>
<!-- Generator: Adobe Illustrator 22.1.0, SVG Export Plug-In . SVG Version: 6.00 Build 0)  -->
<svg version="1.1" id="Layer_1" xmlns="http://www.w3.org/2000/svg" xmlns:xlink="http://www.w3.org/1999/xlink" x="0px" y="0px"
	 viewBox="0 0 274.3 67.3" style="enable-background:new 0 0 274.3 67.3;" xml:space="preserve">
<style type="text/css">
	.st0{fill:#F48437;}
	.st1{fill:#435C79;}
</style>
<g>
	<g>
		<path class="st0" d="M59.2,3.3c0-2,1-3.1,3-3.1h25.2c2,0,3.1,1.1,3.1,3.1v2.1c0,2-1.1,3-3.1,3H68.6v13.7h14.6c2,0,3.1,1,3.1,3v2.1
			c0,2.1-1.1,3.1-3.1,3.1H68.6v14.1h20c2,0,3.1,1,3.1,3v2.1c0,2.1-1.1,3.1-3.1,3.1H62.2c-2,0-3-1-3-3.1V3.3z"/>
		<path class="st1" d="M107,33.5l-9.7-14.9c-1.4-2.1-0.5-3.7,2-3.7h3.8c1.7,0,2.8,0.7,3.6,2.2l4.7,8c0.5,1,1.2,2.4,1.2,2.4h0.1
			c0,0,0.7-1.4,1.2-2.4l4.7-8c0.8-1.5,1.9-2.2,3.6-2.2h3.8c2.5,0,3.4,1.6,2,3.7l-9.7,14.9l10,15.4c1.3,2.1,0.4,3.7-2.1,3.7h-3.5
			c-1.7,0-2.8-0.7-3.6-2.1l-5.4-8.8c-0.4-0.8-1-2-1-2h-0.1c0,0-0.5,1.2-1,2l-5.3,8.8c-0.9,1.5-2,2.1-3.6,2.1H99
			c-2.5,0-3.4-1.6-2-3.7L107,33.5z"/>
		<path class="st1" d="M135.6,18c0-2,1.1-3.1,3.1-3.1h2.4c2,0,3,1.1,3,2.6v1.7c0,0.8-0.1,1.5-0.1,1.5h0.1c0,0,3.3-6.6,12.1-6.6
			c10.2,0,16.8,8,16.8,19.7c0,12-7.4,19.7-17.3,19.7c-7.8,0-10.8-5.8-10.8-5.8h-0.1c0,0,0.2,1.3,0.2,3.2v13.3c0,2.1-1,3.1-3.1,3.1
			h-3.2c-2,0-3.1-1-3.1-3.1V18z M154.1,45.6c5.2,0,9.4-4.2,9.4-11.7c0-7.2-3.8-11.8-9.3-11.8c-4.9,0-9.5,3.5-9.5,11.9
			C144.7,39.8,148,45.6,154.1,45.6z"/>
		<path class="st1" d="M198.5,14c11.4,0,20.7,8.2,20.7,19.7c0,11.6-9.3,19.7-20.7,19.7c-11.4,0-20.7-8.1-20.7-19.7
			C177.8,22.2,187,14,198.5,14z M198.5,45.5c6.1,0,11.2-4.7,11.2-11.7c0-6.9-5.1-11.7-11.2-11.7s-11.1,4.8-11.1,11.7
			C187.3,40.8,192.3,45.5,198.5,45.5z"/>
		<path class="st1" d="M226,18c0-2,1-3.1,3-3.1h2.9c2,0,3.1,1.1,3.1,3.1v3.5c0,1.4-0.2,2.6-0.2,2.6h0.1c1.5-4.5,5.6-9.5,10.9-9.5
			c2.1,0,2.8,1,2.8,3.1v2.9c0,2-1.2,3.1-3.2,3.1c-6.9,0-10.2,6.8-10.2,13.7v12.1c0,2.1-1,3.1-3,3.1h-3.2c-2,0-3-1-3-3.1V18z"/>
		<path class="st1" d="M255.8,22.9h-2c-2,0-3-1-3-3.1v-1.3c0-2,1-3.1,3.1-3.1h2.1V7.8c0-2,1.1-3.1,3.1-3.1h3c2,0,3.1,1.1,3.1,3.1
			v7.7h5.5c2,0,3.1,1.1,3.1,3.1v1.3c0,2.1-1.1,3.1-3,3.1h-5.5v14.6c0,5.6,3.5,6.7,6.1,7c2.3,0.2,3.1,1,3.1,3v2.3
			c0,2.2-1.3,3.1-3.8,3.1c-6.7,0-14.7-3.6-14.7-13.8V22.9z"/>
	</g>
	<path class="st0" d="M41,30.7l-5,0v-10l5,0c5.7,0,10.3-4.6,10.3-10.3C51.4,4.7,46.7,0,41,0c-5.7,0-10.3,4.6-10.3,10.3l0,5h-10l0-5
		C20.7,4.6,16,0,10.3,0S0,4.6,0,10.3C0,16,4.6,20.7,10.3,20.7l2,0l3,0v10l-5,0C4.6,30.7,0,35.3,0,41s4.6,10.3,10.3,10.3
		c5.7,0,10.3-4.6,10.3-10.3l0-5h10l0,5c0,5.7,4.6,10.3,10.3,10.3S51.4,46.7,51.4,41C51.4,35.3,46.7,30.7,41,30.7z M46,41
		c0,2.8-2.2,5-5,5c-2.7,0-5-2.2-5-4.9l0-1.8l0-3.3h5C43.8,36.1,46,38.3,46,41z M36,15.4v-5.1c0-2.7,2.3-4.9,5-4.9c2.8,0,5,2.2,5,5
		c0,2.7-2.2,5-4.9,5l-1.8,0l-3.2,0L36,15.4z M30.7,20.7v10h-10v-10H30.7z M15.3,15.3h-5.1c-2.7,0-4.9-2.3-4.9-5c0-2.8,2.2-5,5-5
		c2.7,0,5,2.2,5,4.9l0,1.8v3.2L15.3,15.3z M15.3,41.1c0,2.7-2.3,4.9-5,4.9c-2.8,0-5-2.2-5-5c0-2.7,2.2-5,4.9-5l1.8,0h3.2l0.1,0
		L15.3,41.1z"/>
</g>
</svg>
