<?xml version="1.0" encoding="utf-8"?>
<!-- Generator: Adobe Illustrator 22.1.0, SVG Export Plug-In . SVG Version: 6.00 Build 0)  -->
<svg version="1.1" id="Layer_1" xmlns="http://www.w3.org/2000/svg" xmlns:xlink="http://www.w3.org/1999/xlink" x="0px" y="0px"
	 viewBox="0 0 200 200" style="enable-background:new 0 0 200 200;" xml:space="preserve">
<style type="text/css">
	.st0{fill:#E6E6E8;}
</style>
<path class="st0" d="M118.3,54.3v18.3H81.7V54.3c0-15.1-12.3-27.4-27.4-27.4c-15.1,0-27.4,12.3-27.4,27.4
	c0,15.1,12.3,27.4,27.4,27.4h18.3v36.6H54.3c-15.1,0-27.4,12.3-27.4,27.4c0,15.1,12.3,27.4,27.4,27.4c15.1,0,27.4-12.3,27.4-27.4
	v-18.3h36.6v18.3c0,15.1,12.3,27.4,27.4,27.4s27.4-12.3,27.4-27.4c0-15.1-12.3-27.4-27.4-27.4h-18.3V81.7h18.3
	c15.1,0,27.4-12.3,27.4-27.4c0-15.1-12.3-27.4-27.4-27.4S118.3,39.2,118.3,54.3z M54.3,72.6C44.2,72.6,36,64.4,36,54.3
	S44.2,36,54.3,36s18.3,8.2,18.3,18.3v18.3H54.3z M145.7,127.4c10.1,0,18.3,8.2,18.3,18.3s-8.2,18.3-18.3,18.3s-18.3-8.2-18.3-18.3
	v-18.3H145.7z M72.6,127.4v18.3c0,10.1-8.2,18.3-18.3,18.3S36,155.8,36,145.7s8.2-18.3,18.3-18.3H72.6z M118.3,81.7v36.6H81.7V81.7
	H118.3z M164,54.3c0,10.1-8.2,18.3-18.3,18.3h-18.3V54.3c0-10.1,8.2-18.3,18.3-18.3S164,44.2,164,54.3z"/>
</svg>
